<?xml version="1.0" encoding="utf-8"?>
<!-- Generator: Adobe Illustrator 18.1.1, SVG Export Plug-In . SVG Version: 6.00 Build 0)  -->
<svg version="1.1" id="Layer_1" xmlns="http://www.w3.org/2000/svg" xmlns:xlink="http://www.w3.org/1999/xlink" x="0px" y="0px"
	 viewBox="341.8 352.2 220 60.5" enable-background="new 341.8 352.2 220 60.5" xml:space="preserve">
<g class="nyc">
	<g class="n">
		<path fill="#1A3D4E" d="M1.4,14.9H11l1.4,0.7L31,47.3h0.7V15.6l0.7-0.7h8.3l0.7,0.7v46.9l-0.7,0.7H31l-1.4-0.7L11,30.7h-0.7v31.7 l-0.7,0.7H1.4l-0.7-0.7V15.6L1.4,14.9z"/>
	</g>
	<g class="y">
		<path fill="#1A3D4E" d="M70.9,45.2v17.2l-0.7,0.7h-8.3l-0.7-0.7V45.2L47.4,22.5v-6.9l0.7-0.7h4.8l1.4,0.7l11,18.6h1.4l11-18.6 l1.4-0.7H84l0.7,0.7v6.9L70.9,45.2z"/>
	</g>
	<g class="c">	
		<path fill="#1A3D4E" d="M121.1,48.7l0.7-0.7h8.3l0.7,0.7c-1.4,9.7-9,15.2-20,15.2c-15.2,0-23.5-10.4-23.5-24.8 c0-14.5,8.3-24.8,23.5-24.8c11,0,18.6,5.5,20,14.5l-0.7,0.7h-8.3l-0.7-0.7c-1.4-4.1-4.8-6.2-10.3-6.2C101.1,22.5,97,29.4,97,39 c0,9.7,4.1,16.6,13.8,16.6C116.3,55.6,119.7,53.5,121.1,48.7z"/>
	</g>
</g>
</svg>
