<svg version="1.1" id="Layer_1" xmlns="http://www.w3.org/2000/svg" xmlns:xlink="http://www.w3.org/1999/xlink" x="0px" y="0px"
	 viewBox="16 220 1272 360" xml:space="preserve">
<g class="nyc">
	<g class="n">
		<path fill="#1A3D4E" d="M48.9,308.2h37.4l5.5,2.7l72.5,123.6h2.7V310.9l2.7-2.7h32.4l2.7,2.7v182.8l-2.7,2.7h-37.8l-5.5-2.7
			l-72.5-124h-2.7v123.6l-2.7,2.7h-32l-2.7-2.7V310.9L48.9,308.2z"/>
	</g>
	<g class="y">
		<path fill="#1A3D4E" d="M319.8,426.3v67l-2.7,2.7h-32.4l-2.7-2.7v-67l-53.8-88.5v-26.9l2.7-2.7h18.7l5.5,2.7l42.9,72.5h5.5
			l42.9-72.5l5.5-2.7h19.1l2.7,2.7v26.9L319.8,426.3z"/>
	</g>
	<g class="c">
		<path fill="#1A3D4E" d="M515.5,439.9l2.7-2.7h32.4l2.7,2.7c-5.5,37.8-35.1,59.3-78,59.3c-59.3,0-91.6-40.5-91.6-96.7
			c0-56.5,32.4-96.7,91.6-96.7c42.9,0,72.5,21.4,78,56.5l-2.7,2.7h-32.4l-2.7-2.7c-5.5-16-18.7-24.2-40.2-24.2
			c-37.8-0.4-53.8,26.5-53.8,63.9c0,37.8,16,64.7,53.8,64.7C496.8,466.8,510.1,458.6,515.5,439.9z"/>
	</g>
</g>
<g class="lightningbolt">
	<g class="nipple">	
		<path fill="#1B3D4E" d="M740.4,249.2l-13.8-5.9l-6.4,15.2l-19.4-8.2l6.4-15.2l-13.9-5.9c-7.1-3-15.3,0.3-18.3,7.4
			l5.7,19.8l-20.9,49.2l1.4,7.5l-22.4,52.7l2,7.7l2,0.9l-19.6,46.3l4.4,5.6l15.7-11l4.5,3.2l9.2,0.5l13.9-32.8l2,0.8l7-3.9l22.4-52.7
			l6.4-4.2l20.9-49.2l18.2-9.7C750.8,260.4,747.5,252.2,740.4,249.2z"/>
	</g>
	<g class="bolt">	
		<path fill="#1B3D4E" d="M685.1,423.2l-5.6-3.2h0l-15.6,8.7l-7.1-9.5l-65.4,138.4l0,0c-0.2,0.4-0.3,0.7-0.3,1.2
			c0,1.6,1.3,2.8,2.8,2.8c0.9,0,1.7-0.4,2.2-1.1l0,0l99.4-136.8L685.1,423.2z"/>
	</g>
</g>
<g class="adv">
	<g class="a">
		<path fill="#1B3D4E" d="M907.1,497h-24.3l-2.7-2.7l-13.5-35.1l-5.4-2.7h-67.4l-5.4,2.7l-13.5,35.1l-2.7,2.7H748h-14.5
			l73.9-186.1l2.7-2.7h35.1l2.7,2.7l62,156.4v27L907.1,497z M828.9,356.8h-2.7l-24.3,64.7l2.7,2.7h45.9l2.7-2.7L828.9,356.8z"/>
	<g>
	<g class="d">		
		<path fill="#1B3D4E" d="M994.9,497h-59.3l-2.7-2.7V310.9l2.7-2.7h59.3c67.4,0,91.7,35.1,91.7,94.4
			C1086.6,462,1062.4,497,994.9,497z M997.6,340.6h-24.3l-2.7,2.7V462l2.7,2.7h24.3c37.8,0,51.2-18.9,51.2-62
			C1048.9,359.5,1035.4,340.6,997.6,340.6z"/>
	<g>
	<g class="v">		
		<path fill="#1B3D4E" d="M1198.7,494.3l-2.7,2.7H1161l-2.7-2.7l-59.3-156.5v-27l2.7-2.7h24.3l2.7,2.7l48.6,132.2h2.7
			l48.5-132.2l2.7-2.7h24.3l2.7,2.7v27L1198.7,494.3z"/>
	</g>
</g>
</svg>
